<?xml version="1.0" encoding="UTF-8" standalone="no"?>
<!DOCTYPE svg PUBLIC "-//W3C//DTD SVG 1.1//EN"
 "http://www.w3.org/Graphics/SVG/1.1/DTD/svg11.dtd">
<!-- Generated by graphviz version 2.42.3 (20191010.1750)
 -->
<!-- Title: snakemake_dag Pages: 1 -->
<svg width="301pt" height="332pt"
 viewBox="0.00 0.00 301.00 332.00" xmlns="http://www.w3.org/2000/svg" xmlns:xlink="http://www.w3.org/1999/xlink">
<g id="graph0" class="graph" transform="scale(1 1) rotate(0) translate(4 328)">
<title>snakemake_dag</title>
<polygon fill="white" stroke="transparent" points="-4,4 -4,-328 297,-328 297,4 -4,4"/>
<!-- 0 -->
<g id="node1" class="node">
<title>0</title>
<path fill="none" stroke="#56d863" stroke-width="2" d="M130,-36C130,-36 95,-36 95,-36 89,-36 83,-30 83,-24 83,-24 83,-12 83,-12 83,-6 89,0 95,0 95,0 130,0 130,0 136,0 142,-6 142,-12 142,-12 142,-24 142,-24 142,-30 136,-36 130,-36"/>
<text text-anchor="middle" x="112.5" y="-15.5" font-family="sans" font-size="10.00">assembly</text>
</g>
<!-- 1 -->
<g id="node2" class="node">
<title>1</title>
<path fill="none" stroke="#d8d356" stroke-width="2" d="M154,-108C154,-108 71,-108 71,-108 65,-108 59,-102 59,-96 59,-96 59,-84 59,-84 59,-78 65,-72 71,-72 71,-72 154,-72 154,-72 160,-72 166,-78 166,-84 166,-84 166,-96 166,-96 166,-102 160,-108 154,-108"/>
<text text-anchor="middle" x="112.5" y="-87.5" font-family="sans" font-size="10.00">QC_assembly_quast</text>
</g>
<!-- 1&#45;&gt;0 -->
<g id="edge1" class="edge">
<title>1&#45;&gt;0</title>
<path fill="none" stroke="grey" stroke-width="2" d="M112.5,-71.7C112.5,-63.98 112.5,-54.71 112.5,-46.11"/>
<polygon fill="grey" stroke="grey" stroke-width="2" points="116,-46.1 112.5,-36.1 109,-46.1 116,-46.1"/>
</g>
<!-- 2 -->
<g id="node3" class="node">
<title>2</title>
<path fill="none" stroke="#afd856" stroke-width="2" d="M281,-108C281,-108 196,-108 196,-108 190,-108 184,-102 184,-96 184,-96 184,-84 184,-84 184,-78 190,-72 196,-72 196,-72 281,-72 281,-72 287,-72 293,-78 293,-84 293,-84 293,-96 293,-96 293,-102 287,-108 281,-108"/>
<text text-anchor="middle" x="238.5" y="-87.5" font-family="sans" font-size="10.00">QC_assembly_busco</text>
</g>
<!-- 2&#45;&gt;0 -->
<g id="edge2" class="edge">
<title>2&#45;&gt;0</title>
<path fill="none" stroke="grey" stroke-width="2" d="M207.68,-71.88C190.68,-62.43 169.41,-50.61 151.29,-40.55"/>
<polygon fill="grey" stroke="grey" stroke-width="2" points="152.58,-37.26 142.14,-35.47 149.18,-43.38 152.58,-37.26"/>
</g>
<!-- 3 -->
<g id="node4" class="node">
<title>3</title>
<path fill="none" stroke="#97d856" stroke-width="2" d="M49,-180C49,-180 12,-180 12,-180 6,-180 0,-174 0,-168 0,-168 0,-156 0,-156 0,-150 6,-144 12,-144 12,-144 49,-144 49,-144 55,-144 61,-150 61,-156 61,-156 61,-168 61,-168 61,-174 55,-180 49,-180"/>
<text text-anchor="middle" x="30.5" y="-159.5" font-family="sans" font-size="10.00">QC_reads</text>
</g>
<!-- 3&#45;&gt;0 -->
<g id="edge3" class="edge">
<title>3&#45;&gt;0</title>
<path fill="none" stroke="grey" stroke-width="2" d="M30.91,-143.73C32.06,-124.86 36.08,-94.35 49.5,-72 56.29,-60.69 66.38,-50.64 76.5,-42.42"/>
<polygon fill="grey" stroke="grey" stroke-width="2" points="78.77,-45.1 84.56,-36.23 74.5,-39.54 78.77,-45.1"/>
</g>
<!-- 4 -->
<g id="node5" class="node">
<title>4</title>
<path fill="none" stroke="#56d87b" stroke-width="2" d="M148,-180C148,-180 91,-180 91,-180 85,-180 79,-174 79,-168 79,-168 79,-156 79,-156 79,-150 85,-144 91,-144 91,-144 148,-144 148,-144 154,-144 160,-150 160,-156 160,-156 160,-168 160,-168 160,-174 154,-180 148,-180"/>
<text text-anchor="middle" x="119.5" y="-159.5" font-family="sans" font-size="10.00">assembly_flye</text>
</g>
<!-- 4&#45;&gt;1 -->
<g id="edge4" class="edge">
<title>4&#45;&gt;1</title>
<path fill="none" stroke="grey" stroke-width="2" d="M117.77,-143.7C117,-135.98 116.07,-126.71 115.21,-118.11"/>
<polygon fill="grey" stroke="grey" stroke-width="2" points="118.69,-117.71 114.21,-108.1 111.72,-118.4 118.69,-117.71"/>
</g>
<!-- 4&#45;&gt;2 -->
<g id="edge5" class="edge">
<title>4&#45;&gt;2</title>
<path fill="none" stroke="grey" stroke-width="2" d="M148.61,-143.88C164.17,-134.72 183.52,-123.34 200.28,-113.48"/>
<polygon fill="grey" stroke="grey" stroke-width="2" points="202.43,-116.28 209.28,-108.19 198.88,-110.24 202.43,-116.28"/>
</g>
<!-- 5 -->
<g id="node6" class="node">
<title>5</title>
<path fill="none" stroke="#56a2d8" stroke-width="2" d="M97.5,-252C97.5,-252 51.5,-252 51.5,-252 45.5,-252 39.5,-246 39.5,-240 39.5,-240 39.5,-228 39.5,-228 39.5,-222 45.5,-216 51.5,-216 51.5,-216 97.5,-216 97.5,-216 103.5,-216 109.5,-222 109.5,-228 109.5,-228 109.5,-240 109.5,-240 109.5,-246 103.5,-252 97.5,-252"/>
<text text-anchor="middle" x="74.5" y="-231.5" font-family="sans" font-size="10.00">filter_reads</text>
</g>
<!-- 5&#45;&gt;3 -->
<g id="edge6" class="edge">
<title>5&#45;&gt;3</title>
<path fill="none" stroke="grey" stroke-width="2" d="M63.62,-215.7C58.51,-207.56 52.3,-197.69 46.66,-188.7"/>
<polygon fill="grey" stroke="grey" stroke-width="2" points="49.54,-186.71 41.25,-180.1 43.61,-190.43 49.54,-186.71"/>
</g>
<!-- 5&#45;&gt;4 -->
<g id="edge7" class="edge">
<title>5&#45;&gt;4</title>
<path fill="none" stroke="grey" stroke-width="2" d="M85.62,-215.7C90.86,-207.56 97.2,-197.69 102.98,-188.7"/>
<polygon fill="grey" stroke="grey" stroke-width="2" points="106.04,-190.41 108.5,-180.1 100.15,-186.62 106.04,-190.41"/>
</g>
<!-- 6 -->
<g id="node7" class="node">
<title>6</title>
<path fill="none" stroke="#61d856" stroke-width="2" d="M108.5,-324C108.5,-324 40.5,-324 40.5,-324 34.5,-324 28.5,-318 28.5,-312 28.5,-312 28.5,-300 28.5,-300 28.5,-294 34.5,-288 40.5,-288 40.5,-288 108.5,-288 108.5,-288 114.5,-288 120.5,-294 120.5,-300 120.5,-300 120.5,-312 120.5,-312 120.5,-318 114.5,-324 108.5,-324"/>
<text text-anchor="middle" x="74.5" y="-303.5" font-family="sans" font-size="10.00">porechop_reads</text>
</g>
<!-- 6&#45;&gt;5 -->
<g id="edge8" class="edge">
<title>6&#45;&gt;5</title>
<path fill="none" stroke="grey" stroke-width="2" d="M74.5,-287.7C74.5,-279.98 74.5,-270.71 74.5,-262.11"/>
<polygon fill="grey" stroke="grey" stroke-width="2" points="78,-262.1 74.5,-252.1 71,-262.1 78,-262.1"/>
</g>
</g>
</svg>
