<?xml version="1.0" encoding="UTF-8" standalone="no"?>
<!DOCTYPE svg PUBLIC "-//W3C//DTD SVG 1.1//EN"
 "http://www.w3.org/Graphics/SVG/1.1/DTD/svg11.dtd">
<!-- Generated by graphviz version 2.42.3 (20191010.1750)
 -->
<!-- Title: snakemake_dag Pages: 1 -->
<svg width="600pt" height="836pt"
 viewBox="0.00 0.00 600.00 836.00" xmlns="http://www.w3.org/2000/svg" xmlns:xlink="http://www.w3.org/1999/xlink">
<g id="graph0" class="graph" transform="scale(1 1) rotate(0) translate(4 832)">
<title>snakemake_dag</title>
<polygon fill="white" stroke="transparent" points="-4,4 -4,-832 596,-832 596,4 -4,4"/>
<!-- 0 -->
<g id="node1" class="node">
<title>0</title>
<path fill="none" stroke="#61d856" stroke-width="2" d="M418.5,-36C418.5,-36 344.5,-36 344.5,-36 338.5,-36 332.5,-30 332.5,-24 332.5,-24 332.5,-12 332.5,-12 332.5,-6 338.5,0 344.5,0 344.5,0 418.5,0 418.5,0 424.5,0 430.5,-6 430.5,-12 430.5,-12 430.5,-24 430.5,-24 430.5,-30 424.5,-36 418.5,-36"/>
<text text-anchor="middle" x="381.5" y="-15.5" font-family="sans" font-size="10.00">asm_polish_SR_LR</text>
</g>
<!-- 1 -->
<g id="node2" class="node">
<title>1</title>
<path fill="none" stroke="#c6d856" stroke-width="2" d="M251.5,-108C251.5,-108 153.5,-108 153.5,-108 147.5,-108 141.5,-102 141.5,-96 141.5,-96 141.5,-84 141.5,-84 141.5,-78 147.5,-72 153.5,-72 153.5,-72 251.5,-72 251.5,-72 257.5,-72 263.5,-78 263.5,-84 263.5,-84 263.5,-96 263.5,-96 263.5,-102 257.5,-108 251.5,-108"/>
<text text-anchor="middle" x="202.5" y="-87.5" font-family="sans" font-size="10.00">QC_polishing_quast_SR</text>
</g>
<!-- 1&#45;&gt;0 -->
<g id="edge1" class="edge">
<title>1&#45;&gt;0</title>
<path fill="none" stroke="grey" stroke-width="2" d="M246.29,-71.88C271.08,-62.18 302.28,-49.98 328.46,-39.74"/>
<polygon fill="grey" stroke="grey" stroke-width="2" points="329.82,-42.97 337.85,-36.07 327.27,-36.45 329.82,-42.97"/>
</g>
<!-- 2 -->
<g id="node3" class="node">
<title>2</title>
<path fill="none" stroke="#56d8c9" stroke-width="2" d="M111,-108C111,-108 12,-108 12,-108 6,-108 0,-102 0,-96 0,-96 0,-84 0,-84 0,-78 6,-72 12,-72 12,-72 111,-72 111,-72 117,-72 123,-78 123,-84 123,-84 123,-96 123,-96 123,-102 117,-108 111,-108"/>
<text text-anchor="middle" x="61.5" y="-87.5" font-family="sans" font-size="10.00">QC_polishing_busco_SR</text>
</g>
<!-- 2&#45;&gt;0 -->
<g id="edge2" class="edge">
<title>2&#45;&gt;0</title>
<path fill="none" stroke="grey" stroke-width="2" d="M123.05,-74.16C126.25,-73.42 129.41,-72.7 132.5,-72 197.23,-57.36 271.69,-41.66 322.2,-31.18"/>
<polygon fill="grey" stroke="grey" stroke-width="2" points="323.2,-34.55 332.28,-29.09 321.78,-27.69 323.2,-34.55"/>
</g>
<!-- 3 -->
<g id="node4" class="node">
<title>3</title>
<path fill="none" stroke="#56d863" stroke-width="2" d="M544,-396C544,-396 461,-396 461,-396 455,-396 449,-390 449,-384 449,-384 449,-372 449,-372 449,-366 455,-360 461,-360 461,-360 544,-360 544,-360 550,-360 556,-366 556,-372 556,-372 556,-384 556,-384 556,-390 550,-396 544,-396"/>
<text text-anchor="middle" x="502.5" y="-375.5" font-family="sans" font-size="10.00">QC_assembly_quast</text>
</g>
<!-- 3&#45;&gt;0 -->
<g id="edge3" class="edge">
<title>3&#45;&gt;0</title>
<path fill="none" stroke="grey" stroke-width="2" d="M511.88,-359.75C517.09,-349.59 523.34,-336.34 527.5,-324 540.44,-285.68 546.5,-275.45 546.5,-235 546.5,-235 546.5,-235 546.5,-161 546.5,-102.18 485.52,-62.4 437.71,-40.25"/>
<polygon fill="grey" stroke="grey" stroke-width="2" points="438.9,-36.94 428.34,-36.05 436.04,-43.33 438.9,-36.94"/>
</g>
<!-- 4 -->
<g id="node5" class="node">
<title>4</title>
<path fill="none" stroke="#56d8a9" stroke-width="2" d="M506,-324C506,-324 421,-324 421,-324 415,-324 409,-318 409,-312 409,-312 409,-300 409,-300 409,-294 415,-288 421,-288 421,-288 506,-288 506,-288 512,-288 518,-294 518,-300 518,-300 518,-312 518,-312 518,-318 512,-324 506,-324"/>
<text text-anchor="middle" x="463.5" y="-303.5" font-family="sans" font-size="10.00">QC_assembly_busco</text>
</g>
<!-- 4&#45;&gt;0 -->
<g id="edge4" class="edge">
<title>4&#45;&gt;0</title>
<path fill="none" stroke="grey" stroke-width="2" d="M464.8,-287.63C466.5,-257.62 467.68,-194.44 452.5,-144 441.29,-106.75 417.41,-68.53 400.45,-44.32"/>
<polygon fill="grey" stroke="grey" stroke-width="2" points="403.21,-42.16 394.54,-36.06 397.51,-46.23 403.21,-42.16"/>
</g>
<!-- 5 -->
<g id="node6" class="node">
<title>5</title>
<path fill="none" stroke="#56d87b" stroke-width="2" d="M340.5,-252C340.5,-252 242.5,-252 242.5,-252 236.5,-252 230.5,-246 230.5,-240 230.5,-240 230.5,-228 230.5,-228 230.5,-222 236.5,-216 242.5,-216 242.5,-216 340.5,-216 340.5,-216 346.5,-216 352.5,-222 352.5,-228 352.5,-228 352.5,-240 352.5,-240 352.5,-246 346.5,-252 340.5,-252"/>
<text text-anchor="middle" x="291.5" y="-231.5" font-family="sans" font-size="10.00">QC_polishing_quast_LR</text>
</g>
<!-- 5&#45;&gt;0 -->
<g id="edge5" class="edge">
<title>5&#45;&gt;0</title>
<path fill="none" stroke="grey" stroke-width="2" d="M293.58,-215.83C296.15,-197.57 301.34,-168.07 310.5,-144 324.33,-107.64 347.64,-69.22 363.75,-44.73"/>
<polygon fill="grey" stroke="grey" stroke-width="2" points="366.7,-46.62 369.34,-36.36 360.87,-42.74 366.7,-46.62"/>
</g>
<!-- 6 -->
<g id="node7" class="node">
<title>6</title>
<path fill="none" stroke="#78d856" stroke-width="2" d="M431,-180C431,-180 332,-180 332,-180 326,-180 320,-174 320,-168 320,-168 320,-156 320,-156 320,-150 326,-144 332,-144 332,-144 431,-144 431,-144 437,-144 443,-150 443,-156 443,-156 443,-168 443,-168 443,-174 437,-180 431,-180"/>
<text text-anchor="middle" x="381.5" y="-159.5" font-family="sans" font-size="10.00">QC_polishing_busco_LR</text>
</g>
<!-- 6&#45;&gt;0 -->
<g id="edge6" class="edge">
<title>6&#45;&gt;0</title>
<path fill="none" stroke="grey" stroke-width="2" d="M381.5,-143.87C381.5,-119.67 381.5,-75.21 381.5,-46.39"/>
<polygon fill="grey" stroke="grey" stroke-width="2" points="385,-46.19 381.5,-36.19 378,-46.19 385,-46.19"/>
</g>
<!-- 7 -->
<g id="node8" class="node">
<title>7</title>
<path fill="none" stroke="#56d0d8" stroke-width="2" d="M580,-468C580,-468 543,-468 543,-468 537,-468 531,-462 531,-456 531,-456 531,-444 531,-444 531,-438 537,-432 543,-432 543,-432 580,-432 580,-432 586,-432 592,-438 592,-444 592,-444 592,-456 592,-456 592,-462 586,-468 580,-468"/>
<text text-anchor="middle" x="561.5" y="-447.5" font-family="sans" font-size="10.00">QC_reads</text>
</g>
<!-- 7&#45;&gt;0 -->
<g id="edge7" class="edge">
<title>7&#45;&gt;0</title>
<path fill="none" stroke="grey" stroke-width="2" d="M566.15,-431.66C572.88,-405.05 584.5,-352.45 584.5,-307 584.5,-307 584.5,-307 584.5,-161 584.5,-90.11 500.35,-51.64 440.41,-33.23"/>
<polygon fill="grey" stroke="grey" stroke-width="2" points="441.22,-29.82 430.64,-30.34 439.24,-36.53 441.22,-29.82"/>
</g>
<!-- 8 -->
<g id="node9" class="node">
<title>8</title>
<path fill="none" stroke="#97d856" stroke-width="2" d="M171,-180C171,-180 124,-180 124,-180 118,-180 112,-174 112,-168 112,-168 112,-156 112,-156 112,-150 118,-144 124,-144 124,-144 171,-144 171,-144 177,-144 183,-150 183,-156 183,-156 183,-168 183,-168 183,-174 177,-180 171,-180"/>
<text text-anchor="middle" x="147.5" y="-159.5" font-family="sans" font-size="10.00">pilon_polish</text>
</g>
<!-- 8&#45;&gt;1 -->
<g id="edge8" class="edge">
<title>8&#45;&gt;1</title>
<path fill="none" stroke="grey" stroke-width="2" d="M161.1,-143.7C167.62,-135.39 175.57,-125.28 182.75,-116.14"/>
<polygon fill="grey" stroke="grey" stroke-width="2" points="185.63,-118.13 189.06,-108.1 180.13,-113.81 185.63,-118.13"/>
</g>
<!-- 8&#45;&gt;2 -->
<g id="edge9" class="edge">
<title>8&#45;&gt;2</title>
<path fill="none" stroke="grey" stroke-width="2" d="M126.24,-143.7C115.41,-134.88 102.08,-124.03 90.34,-114.47"/>
<polygon fill="grey" stroke="grey" stroke-width="2" points="92.48,-111.7 82.51,-108.1 88.06,-117.13 92.48,-111.7"/>
</g>
<!-- 9 -->
<g id="node10" class="node">
<title>9</title>
<path fill="none" stroke="#afd856" stroke-width="2" d="M449,-684C449,-684 392,-684 392,-684 386,-684 380,-678 380,-672 380,-672 380,-660 380,-660 380,-654 386,-648 392,-648 392,-648 449,-648 449,-648 455,-648 461,-654 461,-660 461,-660 461,-672 461,-672 461,-678 455,-684 449,-684"/>
<text text-anchor="middle" x="420.5" y="-663.5" font-family="sans" font-size="10.00">assembly_flye</text>
</g>
<!-- 9&#45;&gt;3 -->
<g id="edge10" class="edge">
<title>9&#45;&gt;3</title>
<path fill="none" stroke="grey" stroke-width="2" d="M425.38,-647.97C439.08,-600.19 477.95,-464.62 494.68,-406.27"/>
<polygon fill="grey" stroke="grey" stroke-width="2" points="498.15,-406.88 497.54,-396.31 491.42,-404.95 498.15,-406.88"/>
</g>
<!-- 9&#45;&gt;4 -->
<g id="edge11" class="edge">
<title>9&#45;&gt;4</title>
<path fill="none" stroke="grey" stroke-width="2" d="M420.5,-647.95C420.5,-621.29 420.5,-568.11 420.5,-523 420.5,-523 420.5,-523 420.5,-449 420.5,-407.29 437.7,-361.54 450.34,-333.54"/>
<polygon fill="grey" stroke="grey" stroke-width="2" points="453.55,-334.96 454.59,-324.42 447.2,-332.01 453.55,-334.96"/>
</g>
<!-- 10 -->
<g id="node11" class="node">
<title>10</title>
<path fill="none" stroke="#56b9d8" stroke-width="2" d="M380,-612C380,-612 305,-612 305,-612 299,-612 293,-606 293,-600 293,-600 293,-588 293,-588 293,-582 299,-576 305,-576 305,-576 380,-576 380,-576 386,-576 392,-582 392,-588 392,-588 392,-600 392,-600 392,-606 386,-612 380,-612"/>
<text text-anchor="middle" x="342.5" y="-591.5" font-family="sans" font-size="10.00">polishing_medaka</text>
</g>
<!-- 9&#45;&gt;10 -->
<g id="edge18" class="edge">
<title>9&#45;&gt;10</title>
<path fill="none" stroke="grey" stroke-width="2" d="M401.22,-647.7C391.58,-639.05 379.77,-628.45 369.27,-619.03"/>
<polygon fill="grey" stroke="grey" stroke-width="2" points="371.34,-616.18 361.56,-612.1 366.66,-621.39 371.34,-616.18"/>
</g>
<!-- 10&#45;&gt;5 -->
<g id="edge12" class="edge">
<title>10&#45;&gt;5</title>
<path fill="none" stroke="grey" stroke-width="2" d="M342.5,-575.95C342.5,-549.29 342.5,-496.11 342.5,-451 342.5,-451 342.5,-451 342.5,-377 342.5,-334.59 322.1,-289.02 307.1,-261.26"/>
<polygon fill="grey" stroke="grey" stroke-width="2" points="309.99,-259.25 302.07,-252.21 303.87,-262.65 309.99,-259.25"/>
</g>
<!-- 10&#45;&gt;6 -->
<g id="edge13" class="edge">
<title>10&#45;&gt;6</title>
<path fill="none" stroke="grey" stroke-width="2" d="M350.19,-575.91C361.29,-549.62 380.5,-497.45 380.5,-451 380.5,-451 380.5,-451 380.5,-305 380.5,-265 380.9,-218.65 381.2,-190.08"/>
<polygon fill="grey" stroke="grey" stroke-width="2" points="384.7,-190.09 381.3,-180.05 377.7,-190.01 384.7,-190.09"/>
</g>
<!-- 15 -->
<g id="node16" class="node">
<title>15</title>
<path fill="none" stroke="#568ad8" stroke-width="2" d="M270,-468C270,-468 217,-468 217,-468 211,-468 205,-462 205,-456 205,-456 205,-444 205,-444 205,-438 211,-432 217,-432 217,-432 270,-432 270,-432 276,-432 282,-438 282,-444 282,-444 282,-456 282,-456 282,-462 276,-468 270,-468"/>
<text text-anchor="middle" x="243.5" y="-447.5" font-family="sans" font-size="10.00">pilon1_polish</text>
</g>
<!-- 10&#45;&gt;15 -->
<g id="edge25" class="edge">
<title>10&#45;&gt;15</title>
<path fill="none" stroke="grey" stroke-width="2" d="M331.99,-576C320.67,-557.88 301.92,-528.5 284.5,-504 277.96,-494.8 270.49,-484.97 263.74,-476.3"/>
<polygon fill="grey" stroke="grey" stroke-width="2" points="266.46,-474.1 257.53,-468.4 260.96,-478.42 266.46,-474.1"/>
</g>
<!-- 18 -->
<g id="node19" class="node">
<title>18</title>
<path fill="none" stroke="#d86e56" stroke-width="2" d="M264,-540C264,-540 207,-540 207,-540 201,-540 195,-534 195,-528 195,-528 195,-516 195,-516 195,-510 201,-504 207,-504 207,-504 264,-504 264,-504 270,-504 276,-510 276,-516 276,-516 276,-528 276,-528 276,-534 270,-540 264,-540"/>
<text text-anchor="middle" x="235.5" y="-519.5" font-family="sans" font-size="10.00">pilon1_bowtie</text>
</g>
<!-- 10&#45;&gt;18 -->
<g id="edge30" class="edge">
<title>10&#45;&gt;18</title>
<path fill="none" stroke="grey" stroke-width="2" d="M316.32,-575.88C302.46,-566.81 285.26,-555.55 270.29,-545.76"/>
<polygon fill="grey" stroke="grey" stroke-width="2" points="272.06,-542.74 261.78,-540.19 268.23,-548.59 272.06,-542.74"/>
</g>
<!-- 11 -->
<g id="node12" class="node">
<title>11</title>
<path fill="none" stroke="#d85656" stroke-width="2" d="M443.5,-756C443.5,-756 397.5,-756 397.5,-756 391.5,-756 385.5,-750 385.5,-744 385.5,-744 385.5,-732 385.5,-732 385.5,-726 391.5,-720 397.5,-720 397.5,-720 443.5,-720 443.5,-720 449.5,-720 455.5,-726 455.5,-732 455.5,-732 455.5,-744 455.5,-744 455.5,-750 449.5,-756 443.5,-756"/>
<text text-anchor="middle" x="420.5" y="-735.5" font-family="sans" font-size="10.00">filter_reads</text>
</g>
<!-- 11&#45;&gt;7 -->
<g id="edge14" class="edge">
<title>11&#45;&gt;7</title>
<path fill="none" stroke="grey" stroke-width="2" d="M439.98,-719.83C450.12,-710.1 462.11,-697.25 470.5,-684 513.83,-615.55 542.33,-523.14 554.61,-478.03"/>
<polygon fill="grey" stroke="grey" stroke-width="2" points="558.05,-478.69 557.25,-468.13 551.29,-476.89 558.05,-478.69"/>
</g>
<!-- 11&#45;&gt;9 -->
<g id="edge17" class="edge">
<title>11&#45;&gt;9</title>
<path fill="none" stroke="grey" stroke-width="2" d="M420.5,-719.7C420.5,-711.98 420.5,-702.71 420.5,-694.11"/>
<polygon fill="grey" stroke="grey" stroke-width="2" points="424,-694.1 420.5,-684.1 417,-694.1 424,-694.1"/>
</g>
<!-- 11&#45;&gt;10 -->
<g id="edge19" class="edge">
<title>11&#45;&gt;10</title>
<path fill="none" stroke="grey" stroke-width="2" d="M400.16,-719.58C390.03,-709.97 378.31,-697.31 370.5,-684 359.14,-664.64 351.88,-640.16 347.6,-621.78"/>
<polygon fill="grey" stroke="grey" stroke-width="2" points="351.02,-621.03 345.47,-612 344.18,-622.52 351.02,-621.03"/>
</g>
<!-- 12 -->
<g id="node13" class="node">
<title>12</title>
<path fill="none" stroke="#d8a456" stroke-width="2" d="M209,-324C209,-324 156,-324 156,-324 150,-324 144,-318 144,-312 144,-312 144,-300 144,-300 144,-294 150,-288 156,-288 156,-288 209,-288 209,-288 215,-288 221,-294 221,-300 221,-300 221,-312 221,-312 221,-318 215,-324 209,-324"/>
<text text-anchor="middle" x="182.5" y="-303.5" font-family="sans" font-size="10.00">pilon2_polish</text>
</g>
<!-- 12&#45;&gt;8 -->
<g id="edge15" class="edge">
<title>12&#45;&gt;8</title>
<path fill="none" stroke="grey" stroke-width="2" d="M178.94,-287.87C175.14,-269.9 168.81,-240.87 162.5,-216 160.33,-207.43 157.77,-198.14 155.38,-189.77"/>
<polygon fill="grey" stroke="grey" stroke-width="2" points="158.74,-188.76 152.6,-180.12 152.01,-190.7 158.74,-188.76"/>
</g>
<!-- 13 -->
<g id="node14" class="node">
<title>13</title>
<path fill="none" stroke="#d88556" stroke-width="2" d="M142,-252C142,-252 85,-252 85,-252 79,-252 73,-246 73,-240 73,-240 73,-228 73,-228 73,-222 79,-216 85,-216 85,-216 142,-216 142,-216 148,-216 154,-222 154,-228 154,-228 154,-240 154,-240 154,-246 148,-252 142,-252"/>
<text text-anchor="middle" x="113.5" y="-231.5" font-family="sans" font-size="10.00">pilon3_bowtie</text>
</g>
<!-- 12&#45;&gt;13 -->
<g id="edge24" class="edge">
<title>12&#45;&gt;13</title>
<path fill="none" stroke="grey" stroke-width="2" d="M165.44,-287.7C157,-279.14 146.68,-268.66 137.46,-259.3"/>
<polygon fill="grey" stroke="grey" stroke-width="2" points="139.87,-256.77 130.36,-252.1 134.89,-261.68 139.87,-256.77"/>
</g>
<!-- 13&#45;&gt;8 -->
<g id="edge16" class="edge">
<title>13&#45;&gt;8</title>
<path fill="none" stroke="grey" stroke-width="2" d="M121.9,-215.7C125.77,-207.73 130.45,-198.1 134.74,-189.26"/>
<polygon fill="grey" stroke="grey" stroke-width="2" points="137.97,-190.63 139.19,-180.1 131.67,-187.57 137.97,-190.63"/>
</g>
<!-- 14 -->
<g id="node15" class="node">
<title>14</title>
<path fill="none" stroke="#d8d356" stroke-width="2" d="M454.5,-828C454.5,-828 386.5,-828 386.5,-828 380.5,-828 374.5,-822 374.5,-816 374.5,-816 374.5,-804 374.5,-804 374.5,-798 380.5,-792 386.5,-792 386.5,-792 454.5,-792 454.5,-792 460.5,-792 466.5,-798 466.5,-804 466.5,-804 466.5,-816 466.5,-816 466.5,-822 460.5,-828 454.5,-828"/>
<text text-anchor="middle" x="420.5" y="-807.5" font-family="sans" font-size="10.00">porechop_reads</text>
</g>
<!-- 14&#45;&gt;11 -->
<g id="edge20" class="edge">
<title>14&#45;&gt;11</title>
<path fill="none" stroke="grey" stroke-width="2" d="M420.5,-791.7C420.5,-783.98 420.5,-774.71 420.5,-766.11"/>
<polygon fill="grey" stroke="grey" stroke-width="2" points="424,-766.1 420.5,-756.1 417,-766.1 424,-766.1"/>
</g>
<!-- 15&#45;&gt;12 -->
<g id="edge21" class="edge">
<title>15&#45;&gt;12</title>
<path fill="none" stroke="grey" stroke-width="2" d="M244.19,-431.74C244.25,-413.15 242.39,-383.13 231.5,-360 226.59,-349.58 218.9,-339.82 211.05,-331.58"/>
<polygon fill="grey" stroke="grey" stroke-width="2" points="213.44,-329.02 203.87,-324.46 208.51,-333.99 213.44,-329.02"/>
</g>
<!-- 16 -->
<g id="node17" class="node">
<title>16</title>
<path fill="none" stroke="#5673d8" stroke-width="2" d="M211,-396C211,-396 154,-396 154,-396 148,-396 142,-390 142,-384 142,-384 142,-372 142,-372 142,-366 148,-360 154,-360 154,-360 211,-360 211,-360 217,-360 223,-366 223,-372 223,-372 223,-384 223,-384 223,-390 217,-396 211,-396"/>
<text text-anchor="middle" x="182.5" y="-375.5" font-family="sans" font-size="10.00">pilon2_bowtie</text>
</g>
<!-- 15&#45;&gt;16 -->
<g id="edge28" class="edge">
<title>15&#45;&gt;16</title>
<path fill="none" stroke="grey" stroke-width="2" d="M228.42,-431.7C221.11,-423.3 212.19,-413.07 204.16,-403.86"/>
<polygon fill="grey" stroke="grey" stroke-width="2" points="206.61,-401.34 197.41,-396.1 201.34,-405.94 206.61,-401.34"/>
</g>
<!-- 16&#45;&gt;12 -->
<g id="edge22" class="edge">
<title>16&#45;&gt;12</title>
<path fill="none" stroke="grey" stroke-width="2" d="M182.5,-359.7C182.5,-351.98 182.5,-342.71 182.5,-334.11"/>
<polygon fill="grey" stroke="grey" stroke-width="2" points="186,-334.1 182.5,-324.1 179,-334.1 186,-334.1"/>
</g>
<!-- 17 -->
<g id="node18" class="node">
<title>17</title>
<path fill="none" stroke="#56d892" stroke-width="2" d="M181.5,-612C181.5,-612 151.5,-612 151.5,-612 145.5,-612 139.5,-606 139.5,-600 139.5,-600 139.5,-588 139.5,-588 139.5,-582 145.5,-576 151.5,-576 151.5,-576 181.5,-576 181.5,-576 187.5,-576 193.5,-582 193.5,-588 193.5,-588 193.5,-600 193.5,-600 193.5,-606 187.5,-612 181.5,-612"/>
<text text-anchor="middle" x="166.5" y="-591.5" font-family="sans" font-size="10.00">curing</text>
</g>
<!-- 17&#45;&gt;13 -->
<g id="edge23" class="edge">
<title>17&#45;&gt;13</title>
<path fill="none" stroke="grey" stroke-width="2" d="M155.52,-575.84C139.99,-549.89 113.5,-498.63 113.5,-451 113.5,-451 113.5,-451 113.5,-377 113.5,-337 113.5,-290.65 113.5,-262.08"/>
<polygon fill="grey" stroke="grey" stroke-width="2" points="117,-262.05 113.5,-252.05 110,-262.05 117,-262.05"/>
</g>
<!-- 17&#45;&gt;16 -->
<g id="edge27" class="edge">
<title>17&#45;&gt;16</title>
<path fill="none" stroke="grey" stroke-width="2" d="M167.78,-575.85C170.55,-538.83 177.1,-451.18 180.45,-406.39"/>
<polygon fill="grey" stroke="grey" stroke-width="2" points="183.96,-406.47 181.21,-396.23 176.98,-405.94 183.96,-406.47"/>
</g>
<!-- 17&#45;&gt;18 -->
<g id="edge29" class="edge">
<title>17&#45;&gt;18</title>
<path fill="none" stroke="grey" stroke-width="2" d="M183.56,-575.7C192,-567.14 202.32,-556.66 211.54,-547.3"/>
<polygon fill="grey" stroke="grey" stroke-width="2" points="214.11,-549.68 218.64,-540.1 209.13,-544.77 214.11,-549.68"/>
</g>
<!-- 18&#45;&gt;15 -->
<g id="edge26" class="edge">
<title>18&#45;&gt;15</title>
<path fill="none" stroke="grey" stroke-width="2" d="M237.48,-503.7C238.36,-495.98 239.42,-486.71 240.4,-478.11"/>
<polygon fill="grey" stroke="grey" stroke-width="2" points="243.89,-478.44 241.55,-468.1 236.93,-477.64 243.89,-478.44"/>
</g>
</g>
</svg>
