<?xml version="1.0" encoding="UTF-8" standalone="no"?>
<!DOCTYPE svg PUBLIC "-//W3C//DTD SVG 1.1//EN"
 "http://www.w3.org/Graphics/SVG/1.1/DTD/svg11.dtd">
<!-- Generated by graphviz version 2.42.3 (20191010.1750)
 -->
<!-- Title: snakemake_dag Pages: 1 -->
<svg width="486pt" height="404pt"
 viewBox="0.00 0.00 486.33 404.00" xmlns="http://www.w3.org/2000/svg" xmlns:xlink="http://www.w3.org/1999/xlink">
<g id="graph0" class="graph" transform="scale(1 1) rotate(0) translate(4 400)">
<title>snakemake_dag</title>
<polygon fill="white" stroke="transparent" points="-4,4 -4,-400 482.33,-400 482.33,4 -4,4"/>
<!-- 0 -->
<g id="node1" class="node">
<title>0</title>
<path fill="none" stroke="#56d863" stroke-width="2" d="M252.33,-36C252.33,-36 193.33,-36 193.33,-36 187.33,-36 181.33,-30 181.33,-24 181.33,-24 181.33,-12 181.33,-12 181.33,-6 187.33,0 193.33,0 193.33,0 252.33,0 252.33,0 258.33,0 264.33,-6 264.33,-12 264.33,-12 264.33,-24 264.33,-24 264.33,-30 258.33,-36 252.33,-36"/>
<text text-anchor="middle" x="222.83" y="-15.5" font-family="sans" font-size="10.00">asm_polish_LR</text>
</g>
<!-- 1 -->
<g id="node2" class="node">
<title>1</title>
<path fill="none" stroke="#56d892" stroke-width="2" d="M130.83,-108C130.83,-108 32.83,-108 32.83,-108 26.83,-108 20.83,-102 20.83,-96 20.83,-96 20.83,-84 20.83,-84 20.83,-78 26.83,-72 32.83,-72 32.83,-72 130.83,-72 130.83,-72 136.83,-72 142.83,-78 142.83,-84 142.83,-84 142.83,-96 142.83,-96 142.83,-102 136.83,-108 130.83,-108"/>
<text text-anchor="middle" x="81.83" y="-87.5" font-family="sans" font-size="10.00">QC_polishing_quast_LR</text>
</g>
<!-- 1&#45;&gt;0 -->
<g id="edge1" class="edge">
<title>1&#45;&gt;0</title>
<path fill="none" stroke="grey" stroke-width="2" d="M116.32,-71.88C135.27,-62.47 158.96,-50.71 179.19,-40.67"/>
<polygon fill="grey" stroke="grey" stroke-width="2" points="180.8,-43.77 188.2,-36.19 177.69,-37.5 180.8,-43.77"/>
</g>
<!-- 2 -->
<g id="node3" class="node">
<title>2</title>
<path fill="none" stroke="#afd856" stroke-width="2" d="M272.33,-108C272.33,-108 173.33,-108 173.33,-108 167.33,-108 161.33,-102 161.33,-96 161.33,-96 161.33,-84 161.33,-84 161.33,-78 167.33,-72 173.33,-72 173.33,-72 272.33,-72 272.33,-72 278.33,-72 284.33,-78 284.33,-84 284.33,-84 284.33,-96 284.33,-96 284.33,-102 278.33,-108 272.33,-108"/>
<text text-anchor="middle" x="222.83" y="-87.5" font-family="sans" font-size="10.00">QC_polishing_busco_LR</text>
</g>
<!-- 2&#45;&gt;0 -->
<g id="edge2" class="edge">
<title>2&#45;&gt;0</title>
<path fill="none" stroke="grey" stroke-width="2" d="M222.83,-71.7C222.83,-63.98 222.83,-54.71 222.83,-46.11"/>
<polygon fill="grey" stroke="grey" stroke-width="2" points="226.33,-46.1 222.83,-36.1 219.33,-46.1 226.33,-46.1"/>
</g>
<!-- 3 -->
<g id="node4" class="node">
<title>3</title>
<path fill="none" stroke="#c6d856" stroke-width="2" d="M397.33,-108C397.33,-108 314.33,-108 314.33,-108 308.33,-108 302.33,-102 302.33,-96 302.33,-96 302.33,-84 302.33,-84 302.33,-78 308.33,-72 314.33,-72 314.33,-72 397.33,-72 397.33,-72 403.33,-72 409.33,-78 409.33,-84 409.33,-84 409.33,-96 409.33,-96 409.33,-102 403.33,-108 397.33,-108"/>
<text text-anchor="middle" x="355.83" y="-87.5" font-family="sans" font-size="10.00">QC_assembly_quast</text>
</g>
<!-- 3&#45;&gt;0 -->
<g id="edge3" class="edge">
<title>3&#45;&gt;0</title>
<path fill="none" stroke="grey" stroke-width="2" d="M323.29,-71.88C305.58,-62.55 283.48,-50.92 264.51,-40.94"/>
<polygon fill="grey" stroke="grey" stroke-width="2" points="265.97,-37.75 255.49,-36.19 262.71,-43.94 265.97,-37.75"/>
</g>
<!-- 4 -->
<g id="node5" class="node">
<title>4</title>
<path fill="none" stroke="#56d0d8" stroke-width="2" d="M466.33,-180C466.33,-180 381.33,-180 381.33,-180 375.33,-180 369.33,-174 369.33,-168 369.33,-168 369.33,-156 369.33,-156 369.33,-150 375.33,-144 381.33,-144 381.33,-144 466.33,-144 466.33,-144 472.33,-144 478.33,-150 478.33,-156 478.33,-156 478.33,-168 478.33,-168 478.33,-174 472.33,-180 466.33,-180"/>
<text text-anchor="middle" x="423.83" y="-159.5" font-family="sans" font-size="10.00">QC_assembly_busco</text>
</g>
<!-- 4&#45;&gt;0 -->
<g id="edge4" class="edge">
<title>4&#45;&gt;0</title>
<path fill="none" stroke="grey" stroke-width="2" d="M428.27,-143.84C432.24,-124.21 435.21,-92.19 418.83,-72 400.72,-49.67 326.11,-34.28 274.35,-26.05"/>
<polygon fill="grey" stroke="grey" stroke-width="2" points="274.75,-22.57 264.33,-24.5 273.68,-29.49 274.75,-22.57"/>
</g>
<!-- 5 -->
<g id="node6" class="node">
<title>5</title>
<path fill="none" stroke="#56d87b" stroke-width="2" d="M97.33,-252C97.33,-252 60.33,-252 60.33,-252 54.33,-252 48.33,-246 48.33,-240 48.33,-240 48.33,-228 48.33,-228 48.33,-222 54.33,-216 60.33,-216 60.33,-216 97.33,-216 97.33,-216 103.33,-216 109.33,-222 109.33,-228 109.33,-228 109.33,-240 109.33,-240 109.33,-246 103.33,-252 97.33,-252"/>
<text text-anchor="middle" x="78.83" y="-231.5" font-family="sans" font-size="10.00">QC_reads</text>
</g>
<!-- 5&#45;&gt;0 -->
<g id="edge5" class="edge">
<title>5&#45;&gt;0</title>
<path fill="none" stroke="grey" stroke-width="2" d="M61.19,-215.95C31.07,-184.78 -23.73,-117.6 11.83,-72 31.24,-47.12 115.21,-32.14 171.19,-24.73"/>
<polygon fill="grey" stroke="grey" stroke-width="2" points="171.82,-28.18 181.29,-23.44 170.93,-21.24 171.82,-28.18"/>
</g>
<!-- 6 -->
<g id="node7" class="node">
<title>6</title>
<path fill="none" stroke="#61d856" stroke-width="2" d="M260.33,-180C260.33,-180 185.33,-180 185.33,-180 179.33,-180 173.33,-174 173.33,-168 173.33,-168 173.33,-156 173.33,-156 173.33,-150 179.33,-144 185.33,-144 185.33,-144 260.33,-144 260.33,-144 266.33,-144 272.33,-150 272.33,-156 272.33,-156 272.33,-168 272.33,-168 272.33,-174 266.33,-180 260.33,-180"/>
<text text-anchor="middle" x="222.83" y="-159.5" font-family="sans" font-size="10.00">polishing_medaka</text>
</g>
<!-- 6&#45;&gt;1 -->
<g id="edge6" class="edge">
<title>6&#45;&gt;1</title>
<path fill="none" stroke="grey" stroke-width="2" d="M188.34,-143.88C169.39,-134.47 145.7,-122.71 125.47,-112.67"/>
<polygon fill="grey" stroke="grey" stroke-width="2" points="126.97,-109.5 116.45,-108.19 123.86,-115.77 126.97,-109.5"/>
</g>
<!-- 6&#45;&gt;2 -->
<g id="edge7" class="edge">
<title>6&#45;&gt;2</title>
<path fill="none" stroke="grey" stroke-width="2" d="M222.83,-143.7C222.83,-135.98 222.83,-126.71 222.83,-118.11"/>
<polygon fill="grey" stroke="grey" stroke-width="2" points="226.33,-118.1 222.83,-108.1 219.33,-118.1 226.33,-118.1"/>
</g>
<!-- 7 -->
<g id="node8" class="node">
<title>7</title>
<path fill="none" stroke="#56a2d8" stroke-width="2" d="M338.33,-252C338.33,-252 281.33,-252 281.33,-252 275.33,-252 269.33,-246 269.33,-240 269.33,-240 269.33,-228 269.33,-228 269.33,-222 275.33,-216 281.33,-216 281.33,-216 338.33,-216 338.33,-216 344.33,-216 350.33,-222 350.33,-228 350.33,-228 350.33,-240 350.33,-240 350.33,-246 344.33,-252 338.33,-252"/>
<text text-anchor="middle" x="309.83" y="-231.5" font-family="sans" font-size="10.00">assembly_flye</text>
</g>
<!-- 7&#45;&gt;3 -->
<g id="edge8" class="edge">
<title>7&#45;&gt;3</title>
<path fill="none" stroke="grey" stroke-width="2" d="M315.38,-215.87C323.25,-191.56 337.75,-146.82 347.08,-118.01"/>
<polygon fill="grey" stroke="grey" stroke-width="2" points="350.51,-118.78 350.26,-108.19 343.85,-116.62 350.51,-118.78"/>
</g>
<!-- 7&#45;&gt;4 -->
<g id="edge9" class="edge">
<title>7&#45;&gt;4</title>
<path fill="none" stroke="grey" stroke-width="2" d="M337.72,-215.88C352.62,-206.72 371.16,-195.34 387.21,-185.48"/>
<polygon fill="grey" stroke="grey" stroke-width="2" points="389.14,-188.41 395.83,-180.19 385.48,-182.44 389.14,-188.41"/>
</g>
<!-- 7&#45;&gt;6 -->
<g id="edge11" class="edge">
<title>7&#45;&gt;6</title>
<path fill="none" stroke="grey" stroke-width="2" d="M288.32,-215.7C277.37,-206.88 263.88,-196.03 252,-186.47"/>
<polygon fill="grey" stroke="grey" stroke-width="2" points="254.07,-183.65 244.09,-180.1 249.68,-189.1 254.07,-183.65"/>
</g>
<!-- 8 -->
<g id="node9" class="node">
<title>8</title>
<path fill="none" stroke="#56d8c9" stroke-width="2" d="M245.83,-324C245.83,-324 199.83,-324 199.83,-324 193.83,-324 187.83,-318 187.83,-312 187.83,-312 187.83,-300 187.83,-300 187.83,-294 193.83,-288 199.83,-288 199.83,-288 245.83,-288 245.83,-288 251.83,-288 257.83,-294 257.83,-300 257.83,-300 257.83,-312 257.83,-312 257.83,-318 251.83,-324 245.83,-324"/>
<text text-anchor="middle" x="222.83" y="-303.5" font-family="sans" font-size="10.00">filter_reads</text>
</g>
<!-- 8&#45;&gt;5 -->
<g id="edge10" class="edge">
<title>8&#45;&gt;5</title>
<path fill="none" stroke="grey" stroke-width="2" d="M187.6,-287.88C166.86,-277.79 140.55,-265 119,-254.53"/>
<polygon fill="grey" stroke="grey" stroke-width="2" points="120.3,-251.27 109.78,-250.05 117.24,-257.57 120.3,-251.27"/>
</g>
<!-- 8&#45;&gt;6 -->
<g id="edge12" class="edge">
<title>8&#45;&gt;6</title>
<path fill="none" stroke="grey" stroke-width="2" d="M222.83,-287.87C222.83,-263.67 222.83,-219.21 222.83,-190.39"/>
<polygon fill="grey" stroke="grey" stroke-width="2" points="226.33,-190.19 222.83,-180.19 219.33,-190.19 226.33,-190.19"/>
</g>
<!-- 8&#45;&gt;7 -->
<g id="edge13" class="edge">
<title>8&#45;&gt;7</title>
<path fill="none" stroke="grey" stroke-width="2" d="M244.34,-287.7C255.29,-278.88 268.78,-268.03 280.65,-258.47"/>
<polygon fill="grey" stroke="grey" stroke-width="2" points="282.97,-261.1 288.57,-252.1 278.59,-255.65 282.97,-261.1"/>
</g>
<!-- 9 -->
<g id="node10" class="node">
<title>9</title>
<path fill="none" stroke="#d86e56" stroke-width="2" d="M256.83,-396C256.83,-396 188.83,-396 188.83,-396 182.83,-396 176.83,-390 176.83,-384 176.83,-384 176.83,-372 176.83,-372 176.83,-366 182.83,-360 188.83,-360 188.83,-360 256.83,-360 256.83,-360 262.83,-360 268.83,-366 268.83,-372 268.83,-372 268.83,-384 268.83,-384 268.83,-390 262.83,-396 256.83,-396"/>
<text text-anchor="middle" x="222.83" y="-375.5" font-family="sans" font-size="10.00">porechop_reads</text>
</g>
<!-- 9&#45;&gt;8 -->
<g id="edge14" class="edge">
<title>9&#45;&gt;8</title>
<path fill="none" stroke="grey" stroke-width="2" d="M222.83,-359.7C222.83,-351.98 222.83,-342.71 222.83,-334.11"/>
<polygon fill="grey" stroke="grey" stroke-width="2" points="226.33,-334.1 222.83,-324.1 219.33,-334.1 226.33,-334.1"/>
</g>
</g>
</svg>
